<svg width="266" height="191" viewBox="0 0 266 191" fill="none" xmlns="http://www.w3.org/2000/svg">
<g filter="url(#filter0_d_0_5638)">
<path d="M12 67H4.06084L4 66.9571V65.0425L4.06084 65H12V67Z" fill="#142251"/>
<path d="M14 72H8.04562L8 71.9571V70.0425L8.04562 70H14V72Z" fill="#989EB1"/>
<path d="M185.381 0L238.614 30.9975C241.388 32.7671 239.62 36 236.632 36L35.1273 31.7176L18 9.28307L185.381 0Z" fill="#989EB1"/>
<path d="M182.766 44.5183L181 1L226 27.304L224.39 59L182.766 44.5183Z" fill="#F3F6F9"/>
<path d="M184.543 42L230.51 60.0733C232.909 61.0192 232.251 64.1181 229.68 63.9965L40.3476 55.0227L17 42H184.543Z" fill="#989EB1"/>
<path d="M185 0L17 9.38298L17.1087 42H184.726L185 0Z" fill="#989EB1"/>
<path d="M24.0795 38L24 13.8995L130.899 7L131 37.4478L24.0795 38Z" fill="white"/>
<path d="M12 183H208V136H12V183Z" fill="#142251"/>
<path d="M16.5 136.5H211.5V91.5H16.5V136.5Z" fill="#F3F6F9" stroke="#989EB1"/>
<path d="M21 91H216V75H21V91Z" fill="#989EB1"/>
<path d="M12 79H208V63H12V79Z" fill="#142251"/>
<mask id="path-12-inside-1_0_5638" fill="white">
<path d="M213 56H17C17.6358 53.0463 17.6358 49.9532 17 47L213 51.4997V56Z"/>
</mask>
<path d="M213 56H17C17.6358 53.0463 17.6358 49.9532 17 47L213 51.4997V56Z" fill="#F3F6F9"/>
<path d="M17 56V57H15.7619L16.0224 55.7896L17 56ZM17 47L16.0224 47.2105L15.7556 45.9712L17.023 46.0003L17 47ZM213 51.4997L213.023 50.5L214 50.5224V51.4997H213ZM213 57H17V55H213V57ZM16.0224 55.7896C16.6283 52.9745 16.6283 50.0249 16.0224 47.2105L17.9776 46.7895C18.6432 49.8814 18.6432 53.118 17.9776 56.2104L16.0224 55.7896ZM17.023 46.0003L213.023 50.5L212.977 52.4994L16.977 47.9997L17.023 46.0003ZM214 51.4997V56H212V51.4997H214Z" fill="#989EB1" mask="url(#path-12-inside-1_0_5638)"/>
<path d="M21.6968 56.5C22.288 58.463 22.2881 60.5373 21.6968 62.5H216.5V56.5H21.6968Z" fill="#F3F6F9" stroke="#142251"/>
<path d="M147 176H25V144H147V176Z" fill="#F3F6F9"/>
<path d="M184.5 151.017C179.246 151.017 174.971 155.496 174.971 161C174.971 166.504 179.246 170.983 184.5 170.983C189.755 170.983 194.029 166.504 194.029 161C194.029 155.496 189.755 151.017 184.5 151.017ZM184.5 172C178.71 172 174 167.066 174 161C174 154.934 178.71 150 184.5 150C190.29 150 195 154.934 195 161C195 167.066 190.29 172 184.5 172Z" fill="#989EB1"/>
<path d="M183.5 103.971C178.245 103.971 173.971 108.246 173.971 113.5C173.971 118.754 178.245 123.029 183.5 123.029C188.755 123.029 193.029 118.754 193.029 113.5C193.029 108.246 188.755 103.971 183.5 103.971ZM183.5 124C177.71 124 173 119.29 173 113.5C173 107.71 177.71 103 183.5 103C189.29 103 194 107.71 194 113.5C194 119.29 189.29 124 183.5 124Z" fill="#142251"/>
<path d="M157 10.9709C151.996 10.9709 147.925 15.2458 147.925 20.5C147.925 25.7548 151.996 30.0291 157 30.0291C162.004 30.0291 166.075 25.7548 166.075 20.5C166.075 15.2458 162.004 10.9709 157 10.9709ZM157 31C151.486 31 147 26.29 147 20.5C147 14.7106 151.486 10 157 10C162.514 10 167 14.7106 167 20.5C167 26.29 162.514 31 157 31Z" fill="white"/>
<path d="M185 26.9665C185 26.9665 196.604 32.3568 228.181 16L262 29.4167C262 29.4167 227.268 49.0965 223.997 47.9519C199.814 39.4912 185 26.9665 185 26.9665Z" fill="white"/>
<path d="M206.43 42.9832L232 52.0953V53L184 38L206.43 42.9832Z" fill="#F0F0F0"/>
<path d="M175 91H133.279C133.18 90.9428 133.081 90.8856 132.981 90.8284H174.592C174.728 90.8851 174.865 90.9433 175 91ZM81.6028 63.0352H80.0727C80.0242 63.0117 80 63 80 63C80.5265 63.0044 81.06 63.0161 81.6028 63.0352Z" fill="#CCCCCC"/>
<path d="M200.313 115C178.599 97.8912 154.074 84.9191 127.903 76.6983L80 63H258L200.313 115Z" fill="white"/>
<path d="M29.5 103.5V109.851C32.2299 110.846 34.176 113.52 34.176 116.655C34.176 119.79 32.23 122.464 29.5 123.458V130.5H66.5V103.5H29.5Z" fill="white" stroke="#989EB1"/>
<path d="M57 127H56V106H57V127Z" fill="#142251"/>
<path d="M64 127H59V106H64V127Z" fill="#989EB1"/>
</g>
<defs>
<filter id="filter0_d_0_5638" x="0" y="0" width="266" height="191" filterUnits="userSpaceOnUse" color-interpolation-filters="sRGB">
<feFlood flood-opacity="0" result="BackgroundImageFix"/>
<feColorMatrix in="SourceAlpha" type="matrix" values="0 0 0 0 0 0 0 0 0 0 0 0 0 0 0 0 0 0 127 0" result="hardAlpha"/>
<feOffset dy="4"/>
<feGaussianBlur stdDeviation="2"/>
<feComposite in2="hardAlpha" operator="out"/>
<feColorMatrix type="matrix" values="0 0 0 0 0 0 0 0 0 0 0 0 0 0 0 0 0 0 0.25 0"/>
<feBlend mode="normal" in2="BackgroundImageFix" result="effect1_dropShadow_0_5638"/>
<feBlend mode="normal" in="SourceGraphic" in2="effect1_dropShadow_0_5638" result="shape"/>
</filter>
</defs>
</svg>
